<?xml version="1.0" standalone="no"?>
<!DOCTYPE svg PUBLIC "-//W3C//DTD SVG 20010904//EN"
 "http://www.w3.org/TR/2001/REC-SVG-20010904/DTD/svg10.dtd">
<svg version="1.0" xmlns="http://www.w3.org/2000/svg"
 width="500.000000pt" height="500.000000pt" viewBox="0 0 500.000000 500.000000"
 preserveAspectRatio="xMidYMid meet">
<metadata>
Created by potrace 1.14, written by Peter Selinger 2001-2017
</metadata>
<g transform="translate(0.000000,500.000000) scale(0.100000,-0.100000)"
fill="#000000" stroke="none">
<path d="M2450 4482 c-5 -2 -7 -9 -3 -15 4 -7 0 -7 -9 1 -18 14 -58 12 -218
-12 -101 -16 -405 -117 -470 -157 -8 -5 -28 -14 -43 -20 -80 -32 -327 -179
-335 -200 -2 -5 -10 -9 -18 -9 -8 0 -14 -4 -14 -8 0 -13 -42 -29 -67 -27 -13
1 -23 -4 -23 -12 0 -7 -6 -12 -12 -10 -7 1 -12 -6 -12 -15 1 -10 -2 -16 -6
-13 -5 3 -15 -4 -23 -15 -7 -11 -17 -17 -20 -13 -4 3 -7 -1 -7 -10 0 -9 -9
-21 -20 -27 -10 -6 -17 -16 -14 -24 3 -7 -3 -19 -13 -27 -16 -13 -17 -12 -4 4
7 9 11 17 8 17 -2 0 -17 -17 -33 -37 -15 -21 -21 -33 -13 -28 8 6 1 -3 -16
-18 -16 -16 -25 -26 -18 -23 6 4 15 1 19 -5 4 -7 3 -9 -4 -5 -16 10 -71 -54
-66 -77 2 -11 1 -17 -3 -14 -7 7 -43 -31 -43 -45 0 -6 -9 -23 -21 -39 -11 -16
-17 -29 -13 -29 4 0 -1 -7 -12 -16 -10 -8 -12 -13 -4 -9 8 4 6 -1 -4 -9 -11
-9 -16 -16 -12 -16 5 0 3 -6 -3 -13 -6 -8 -7 -18 -3 -22 4 -5 1 -5 -6 -1 -12
7 -34 -32 -25 -46 2 -5 -1 -8 -7 -8 -7 0 -10 -7 -7 -15 4 -8 1 -17 -5 -21 -7
-5 -8 -2 -3 6 6 9 4 11 -4 5 -7 -4 -10 -16 -8 -27 4 -14 0 -22 -13 -25 -23 -6
-34 -34 -25 -65 5 -18 4 -19 -4 -8 -5 8 -11 12 -13 10 -23 -36 -28 -54 -20
-62 13 -13 4 -38 -14 -38 -9 0 -13 -10 -10 -30 2 -16 -1 -27 -6 -24 -5 3 -7
13 -4 21 3 8 2 12 -3 9 -5 -3 -11 -15 -14 -26 -3 -11 -1 -18 4 -14 5 3 9 1 9
-4 0 -6 -7 -13 -16 -16 -8 -3 -12 -10 -9 -16 3 -5 2 -10 -4 -10 -5 0 -8 -8 -7
-17 2 -10 -2 -22 -8 -26 -7 -6 -6 -7 3 -5 13 4 20 20 23 54 1 6 7 11 14 11 10
0 10 -5 -1 -20 -7 -11 -11 -25 -9 -32 3 -7 -3 -16 -14 -19 -22 -7 -36 -42 -21
-52 5 -3 7 -10 4 -15 -4 -5 -1 -9 4 -9 6 0 11 -5 11 -11 0 -8 -5 -8 -15 1 -8
7 -12 16 -9 21 3 5 1 9 -4 9 -5 0 -9 -18 -10 -41 -1 -22 -5 -46 -9 -52 -7 -12
-11 -32 -16 -82 -2 -17 -6 -36 -11 -43 -6 -10 -3 -12 10 -10 14 2 19 -3 19
-22 0 -14 -5 -24 -12 -23 -6 2 -15 -7 -19 -20 -4 -12 -12 -25 -18 -29 -8 -5
-7 -8 2 -8 7 0 10 -5 6 -12 -4 -7 -3 -8 5 -4 6 4 9 12 6 17 -3 5 1 6 11 2 14
-5 15 -7 1 -15 -9 -5 -14 -15 -11 -22 3 -8 1 -17 -5 -21 -6 -3 -9 0 -5 8 3 8
-2 17 -11 21 -9 3 -14 2 -11 -2 10 -17 14 -62 6 -62 -6 0 -5 -11 1 -26 9 -25
8 -26 -8 -13 -16 13 -17 12 -5 -3 9 -11 10 -18 2 -23 -8 -5 -8 -11 1 -21 6 -8
9 -14 5 -14 -3 0 -1 -12 5 -27 8 -23 7 -30 -8 -41 -13 -10 -14 -13 -3 -12 28
4 38 0 44 -17 6 -15 5 -15 -13 1 -19 17 -20 17 -30 -3 -8 -13 -8 -22 -1 -26 6
-4 7 -12 3 -18 -21 -34 2 -52 27 -22 7 8 16 15 21 15 4 0 -8 -16 -28 -35 -20
-19 -32 -35 -26 -35 13 0 13 -63 -1 -72 -7 -5 -7 -8 2 -8 7 0 10 -5 7 -10 -4
-6 5 -5 20 2 20 9 28 9 38 -1 9 -10 8 -11 -6 -5 -24 9 -47 -13 -45 -42 2 -23
18 -35 18 -14 0 6 5 10 11 10 8 0 7 -5 -2 -16 -10 -13 -10 -17 2 -25 8 -5 9
-9 4 -9 -6 0 -16 5 -23 12 -9 9 -12 9 -12 0 0 -7 4 -12 9 -12 11 0 9 -19 -3
-39 -6 -10 -5 -12 2 -7 8 5 12 -4 12 -28 0 -20 3 -36 8 -36 4 0 8 -14 8 -31 1
-17 6 -34 10 -38 5 -3 10 -17 10 -31 3 -54 3 -53 19 -40 20 17 19 31 -2 24
-15 -5 -16 -4 -3 5 23 16 35 -4 17 -29 -13 -19 -14 -28 -2 -66 7 -24 11 -44 7
-44 -3 0 2 -8 11 -17 15 -18 17 -22 17 -43 0 -21 19 -9 28 18 6 15 11 20 11
11 1 -8 -5 -24 -13 -34 -12 -16 -12 -24 2 -52 12 -26 18 -30 29 -21 7 6 16 8
20 4 3 -3 1 -6 -5 -6 -20 0 -14 -46 8 -65 12 -10 19 -24 16 -31 -3 -7 2 -15
10 -18 9 -3 12 -11 8 -17 -4 -8 -3 -9 5 -5 9 6 9 12 -1 24 -12 15 -11 16 5 3
9 -7 16 -21 15 -30 -2 -10 4 -16 13 -15 12 1 16 -6 14 -23 -1 -13 2 -26 7 -29
4 -3 5 -10 2 -16 -4 -7 -2 -8 5 -4 9 6 9 12 -1 24 -12 15 -11 16 4 3 10 -7 15
-17 12 -23 -3 -5 0 -15 6 -23 7 -8 9 -15 4 -15 -5 0 -2 -5 6 -10 8 -5 23 -7
33 -4 11 4 17 1 15 -8 -2 -7 5 -12 14 -12 14 1 16 -2 7 -17 -5 -11 -12 -19
-15 -19 -3 0 -2 5 2 12 4 7 3 8 -5 4 -7 -4 -10 -2 -9 5 2 7 -6 14 -17 15 -15
2 -16 2 -2 -2 9 -3 15 -10 11 -15 -8 -14 38 -48 56 -41 13 5 13 3 1 -11 -12
-15 -12 -17 2 -11 9 3 24 1 34 -6 16 -10 15 -10 -7 -6 -14 3 -19 3 -12 0 6 -3
10 -9 8 -12 -2 -4 3 -14 12 -22 14 -13 15 -12 9 3 -4 11 -3 16 3 12 6 -3 10
-15 10 -26 0 -10 4 -19 9 -19 5 0 11 -10 15 -22 4 -18 8 -20 18 -10 10 10 10
15 -2 23 -13 9 -13 10 0 6 8 -2 14 -14 13 -26 -2 -12 10 -38 25 -59 21 -29 33
-37 55 -35 15 1 27 -3 27 -8 0 -6 -4 -8 -9 -5 -16 10 -19 -20 -4 -45 8 -13 12
-16 9 -6 -4 11 -2 16 5 12 5 -4 16 -2 24 5 11 9 16 6 25 -12 10 -21 10 -21 -3
-5 -12 14 -16 15 -25 4 -8 -9 -8 -17 0 -27 8 -12 9 -11 4 5 -6 19 -6 19 9 1 8
-10 12 -23 9 -27 -3 -5 4 -9 15 -9 12 0 21 -4 21 -10 0 -5 7 -10 16 -10 9 0
12 -5 8 -12 -4 -6 -3 -8 4 -4 6 3 18 -4 26 -16 9 -12 16 -19 16 -14 0 5 9 -2
21 -15 12 -13 25 -23 30 -22 5 2 9 -1 9 -5 0 -11 100 -66 100 -55 0 4 4 2 9
-6 8 -12 12 -12 24 -2 12 9 17 9 23 0 5 -8 3 -9 -7 -4 -12 8 -12 6 0 -8 13
-16 14 -16 28 0 8 10 12 13 9 6 -4 -6 7 -18 24 -27 17 -8 28 -10 25 -5 -4 5
-1 9 4 9 6 0 11 -4 11 -8 0 -4 12 -9 27 -10 15 -1 29 -6 32 -11 8 -12 53 -17
68 -8 9 6 11 3 7 -7 -3 -9 -2 -16 4 -16 6 0 13 6 15 13 4 7 6 6 6 -5 1 -10 13
-19 34 -23 17 -4 37 -10 42 -14 6 -4 23 -8 38 -9 16 -1 34 -5 40 -9 7 -4 19
-8 27 -8 8 0 21 -4 28 -8 7 -5 12 -3 12 3 0 7 7 4 16 -5 9 -9 19 -13 22 -10 4
3 1 10 -7 14 -10 6 -9 10 4 14 9 4 13 3 10 -2 -12 -20 39 -34 63 -17 7 5 12 4
12 -3 0 -16 24 -9 32 9 6 13 7 13 7 0 1 -9 12 -17 27 -18 25 -2 26 -2 7 16
-10 9 -13 13 -6 9 6 -5 17 -6 23 -2 6 4 9 1 8 -6 -2 -6 3 -14 10 -16 6 -3 12
1 12 9 0 10 2 10 9 -1 5 -8 19 -15 30 -16 23 -2 28 10 9 18 -10 4 -10 6 -1 6
6 1 15 -3 18 -9 3 -5 15 -10 26 -10 11 0 17 4 14 10 -3 5 -2 10 4 10 5 0 12
-6 15 -12 3 -9 9 -7 20 6 16 20 16 20 16 0 0 -11 3 -15 8 -9 4 6 25 11 47 12
82 3 135 8 135 13 0 3 17 6 38 7 59 2 92 7 92 14 0 4 14 6 30 5 17 -1 30 1 30
5 0 6 87 24 103 21 4 -1 7 2 7 7 0 6 9 8 20 6 11 -2 24 3 30 13 6 11 10 12 10
4 0 -7 4 -11 9 -7 6 3 8 14 6 25 -2 11 0 22 5 25 5 3 7 -3 5 -15 -4 -21 16
-41 23 -22 2 7 8 10 13 6 5 -3 9 1 9 8 0 9 3 9 10 -2 8 -13 10 -12 10 3 0 9 5
17 11 17 5 0 7 -5 4 -10 -8 -13 -2 -13 29 1 14 7 23 15 21 20 -3 4 0 11 6 15
7 4 9 3 5 -4 -3 -6 -2 -13 4 -17 6 -3 10 4 11 17 0 22 1 22 9 3 7 -17 9 -18
15 -4 4 11 14 15 28 12 18 -4 20 -3 7 7 -12 9 -10 10 12 6 21 -5 26 -3 22 7
-3 8 3 20 13 28 16 13 17 12 5 -3 -9 -11 -10 -18 -2 -23 5 -3 13 1 16 9 3 9
10 16 16 16 5 0 6 -5 2 -11 -3 -6 9 -3 27 7 19 10 37 17 42 16 4 -1 7 3 7 9 0
5 4 8 10 4 5 -3 16 7 25 22 13 24 15 24 9 5 -5 -22 -4 -22 15 -10 12 7 19 19
16 27 -5 12 -3 12 12 0 15 -13 16 -12 9 6 -5 15 -4 17 5 8 13 -13 59 2 59 19
0 5 5 6 10 3 6 -3 10 -1 10 5 0 6 5 8 12 4 7 -5 9 -2 6 8 -4 8 0 15 8 15 7 0
11 -4 8 -9 -3 -4 0 -8 5 -8 6 0 11 8 11 17 0 9 3 13 7 10 3 -4 12 1 20 11 10
11 12 12 8 2 -4 -8 3 -4 14 9 12 13 21 21 21 18 0 -3 18 13 40 35 22 23 40 45
40 50 0 5 5 6 10 3 6 -3 10 -1 10 5 0 6 5 8 11 4 9 -5 10 1 5 22 -4 16 -3 24
2 17 5 -9 16 -3 37 19 17 18 29 35 28 40 -2 4 2 7 8 5 6 -1 16 7 22 17 7 11
22 30 35 42 16 16 19 24 10 27 -9 4 -9 6 2 6 22 1 145 151 135 165 -3 3 -2 4
2 1 8 -6 38 35 38 53 0 7 7 17 15 22 8 5 11 10 6 10 -5 0 -2 7 5 16 7 9 14 23
15 31 1 8 11 31 20 51 10 20 19 39 19 42 6 30 40 120 46 120 4 0 6 9 4 20 -2
13 2 20 11 20 17 0 19 20 2 20 -8 0 -6 4 3 10 9 5 20 21 23 35 4 14 11 23 16
20 6 -3 10 -2 10 4 0 5 -6 12 -12 14 -10 4 -10 6 0 6 6 1 12 7 12 15 0 8 10
22 23 31 l22 17 -25 -7 c-24 -6 -24 -5 -6 9 10 9 16 22 13 31 -6 14 5 20 28
15 6 -1 4 4 -2 11 -16 16 -17 33 -2 23 7 -4 7 1 -1 16 -8 14 -8 20 -1 16 7 -5
10 3 7 23 -2 17 1 31 6 31 5 0 7 4 3 9 -3 5 -1 12 4 15 5 3 8 19 7 36 -1 16 2
30 8 30 5 0 7 3 3 6 -3 3 -2 17 3 30 6 16 6 24 -1 24 -6 0 -1 13 10 28 19 27
19 30 3 45 -10 11 -12 17 -4 17 7 0 12 5 12 11 0 5 -4 7 -10 4 -14 -9 -12 19
2 33 9 9 8 12 -7 13 -16 1 -15 3 5 9 22 7 22 8 5 10 -11 1 -23 2 -28 1 -4 -1
5 18 19 41 25 40 25 42 4 23 l-23 -20 12 22 c6 12 8 29 4 39 -5 13 -3 15 8 9
8 -5 3 4 -10 18 -21 23 -22 27 -8 33 13 4 14 9 4 19 -9 9 -14 10 -19 1 -6 -8
-8 -8 -8 1 0 6 5 15 10 18 6 4 7 12 4 18 -4 7 -3 8 2 4 5 -5 9 -13 9 -18 0 -5
3 -9 8 -9 4 0 10 0 13 0 4 0 2 6 -5 13 -6 8 -9 23 -6 35 2 12 -4 26 -13 34
-16 12 -16 11 -2 -7 14 -19 14 -19 -3 -6 -15 12 -16 17 -5 25 15 12 12 60 -3
51 -5 -4 -9 0 -9 9 0 8 6 17 13 20 6 4 2 4 -10 2 -15 -3 -20 0 -16 10 3 8 10
11 17 8 6 -3 4 0 -4 8 -8 7 -15 19 -16 26 -3 38 -5 43 -13 38 -5 -4 -8 2 -7
11 2 10 -4 23 -12 29 -14 10 -13 13 6 25 22 14 22 14 -11 31 -20 11 -26 17
-15 18 11 0 15 5 12 15 -4 8 -11 12 -18 8 -6 -4 -5 1 3 10 7 9 10 17 6 17 -4
0 -1 8 6 18 11 14 11 15 -1 5 -20 -19 -46 -17 -31 1 8 10 9 16 1 21 -6 3 -8
10 -5 15 3 4 -2 13 -10 20 -8 7 -15 21 -15 31 0 11 -5 19 -11 19 -8 0 -8 5 1
15 9 11 9 15 1 15 -9 0 -9 5 -1 20 8 16 8 20 -2 18 -8 -2 -12 4 -10 15 2 9 -2
17 -8 17 -6 0 -8 5 -5 10 3 6 2 10 -3 10 -5 0 -9 10 -8 23 1 12 -2 25 -7 28
-4 3 -9 16 -10 27 -1 12 -5 22 -10 22 -4 0 -5 5 -2 10 3 6 2 10 -4 10 -5 0 -8
9 -6 20 2 11 0 20 -4 20 -5 0 -14 13 -21 30 -7 16 -19 35 -28 42 -13 11 -14
11 -7 -1 5 -9 4 -12 -3 -7 -6 4 -9 13 -6 20 7 17 -22 40 -38 30 -10 -5 -10 -4
-1 6 8 9 4 19 -18 43 -16 16 -29 36 -29 43 0 8 -4 14 -10 14 -5 0 -10 7 -10
15 0 9 -6 18 -14 21 -8 3 -20 19 -26 35 -7 16 -17 29 -23 29 -6 0 -7 3 -4 7 4
3 -2 12 -13 20 -11 8 -20 20 -20 28 0 7 -9 17 -20 20 -12 4 -20 15 -20 27 0
12 -3 19 -6 15 -7 -7 -54 38 -54 53 0 5 -5 10 -11 10 -5 0 -7 -5 -3 -12 4 -7
3 -8 -4 -4 -6 4 -8 14 -5 23 4 10 2 14 -5 9 -6 -3 -13 -2 -17 4 -4 6 -11 8
-16 5 -5 -3 -6 1 -3 10 5 11 0 18 -15 22 -11 3 -18 9 -15 14 3 5 1 9 -4 9 -6
0 -20 11 -33 25 -28 30 -66 55 -54 34 5 -8 4 -10 -3 -5 -7 4 -12 13 -12 20 0
6 -18 23 -41 36 -22 14 -47 31 -55 38 -12 12 -14 10 -10 -10 2 -14 9 -22 19
-20 8 1 18 -1 21 -6 6 -10 -30 -9 -41 1 -4 4 -8 17 -10 30 -2 12 -9 26 -15 32
-8 7 -9 6 -4 -2 5 -9 2 -11 -8 -7 -9 3 -13 11 -9 17 4 6 1 7 -6 3 -7 -5 -10
-14 -7 -22 3 -7 1 -16 -4 -19 -5 -3 -7 8 -5 25 l4 30 -27 -16 c-15 -9 -20 -10
-11 -3 16 14 15 39 -2 39 -6 0 -7 -4 -4 -10 11 -18 -4 -10 -30 16 -21 21 -29
24 -41 13 -12 -10 -13 -9 -7 7 6 16 5 17 -9 6 -13 -10 -18 -10 -24 -1 -4 8 -3
9 4 5 7 -4 12 -5 12 -2 0 2 -15 12 -32 21 -28 13 -34 14 -43 2 -11 -15 -20
-10 -44 28 -12 20 -12 20 -7 0 6 -19 5 -19 -8 -2 -16 21 -27 22 -20 2 4 -8 1
-15 -5 -15 -6 0 -10 3 -10 8 5 28 -2 35 -16 16 -13 -16 -14 -16 -9 -1 6 17 -4
22 -34 18 -8 -1 -20 3 -28 10 -11 9 -14 9 -14 0 0 -7 -5 -9 -12 -4 -7 4 -17 8
-23 10 -5 1 -21 5 -35 8 -14 4 -31 7 -37 7 -7 1 -13 4 -13 8 0 4 -10 6 -22 6
-13 -1 -31 4 -40 12 -15 13 -18 13 -18 1 0 -12 -2 -12 -9 0 -5 7 -27 14 -50
15 -22 0 -41 4 -41 7 0 3 -6 6 -12 6 -30 1 -94 12 -111 18 -10 4 -24 1 -34 -6
-12 -10 -15 -10 -9 -1 4 7 1 12 -8 12 -9 0 -16 -6 -16 -12 0 -10 -2 -10 -8 -2
-6 11 -56 14 -82 6z m633 -117 c-3 -9 -8 -14 -10 -11 -3 3 -2 9 2 15 9 16 15
13 8 -4z m182 -55 c3 -5 1 -10 -4 -10 -6 0 -11 5 -11 10 0 6 2 10 4 10 3 0 8
-4 11 -10z m59 -48 c3 -5 -1 -9 -9 -9 -8 0 -12 4 -9 9 3 4 7 8 9 8 2 0 6 -4 9
-8z m250 -118 c3 -8 2 -12 -4 -9 -6 3 -10 10 -10 16 0 14 7 11 14 -7z m20 -42
c3 -5 -1 -9 -9 -9 -8 0 -12 4 -9 9 3 4 7 8 9 8 2 0 6 -4 9 -8z m65 -25 c0 -9
-2 -8 -6 1 -2 6 -10 9 -15 6 -7 -4 -8 -2 -4 5 9 13 26 5 25 -12z m271 -273 c0
-8 -19 -13 -24 -6 -3 5 1 9 9 9 8 0 15 -2 15 -3z m215 -293 c3 -5 2 -12 -3
-15 -5 -3 -9 1 -9 9 0 17 3 19 12 6z m25 -61 c0 -5 -2 -10 -4 -10 -3 0 -8 5
-11 10 -3 6 -1 10 4 10 6 0 11 -4 11 -10z m35 -99 c3 -5 2 -12 -3 -15 -5 -3
-9 1 -9 9 0 17 3 19 12 6z m-3442 -106 c-3 -9 -8 -14 -10 -11 -3 3 -2 9 2 15
9 16 15 13 8 -4z m-13 -145 c0 -5 -2 -10 -4 -10 -3 0 -8 5 -11 10 -3 6 -1 10
4 10 6 0 11 -4 11 -10z m-21 -104 c-3 -3 -11 5 -18 17 -13 21 -12 21 5 5 10
-10 16 -20 13 -22z m-22 -1 c5 -4 2 -4 -6 0 -11 6 -13 4 -8 -8 4 -12 1 -15
-15 -12 -11 3 -23 7 -27 11 -3 4 2 4 12 1 19 -7 24 8 5 17 -7 2 -3 4 9 2 12
-1 26 -6 30 -11z m-23 -117 c-3 -5 -10 -6 -15 -3 -5 4 -9 1 -9 -6 0 -7 -3 -10
-6 -6 -9 9 3 24 20 24 8 0 13 -4 10 -9z m-37 -50 c2 -12 1 -19 -3 -16 -3 3 -6
12 -8 20 -1 7 -5 20 -10 28 -7 12 -6 13 4 3 8 -7 15 -23 17 -35z m-11 -23 c9
-8 11 -15 6 -15 -5 0 -15 7 -22 15 -7 8 -9 15 -6 15 4 0 14 -7 22 -15z m94 1
c0 -2 -7 -7 -16 -10 -8 -3 -12 -2 -9 4 6 10 25 14 25 6z m-95 -43 l18 -28 -21
19 c-12 11 -22 23 -22 28 0 14 7 9 25 -19z m46 -30 c13 -16 12 -17 -3 -4 -10
7 -18 15 -18 17 0 8 8 3 21 -13z m9 -29 c0 -8 -19 -13 -24 -6 -3 5 1 9 9 9 8
0 15 -2 15 -3z m-40 -26 c0 -6 -3 -8 -7 -5 -3 4 -11 -1 -18 -10 -9 -13 -14
-13 -20 -3 -5 8 -4 11 2 7 6 -4 13 0 17 8 6 18 26 20 26 3z m-5 -39 c-3 -12
-7 -24 -10 -27 -3 -3 -3 5 -1 19 6 30 5 29 10 29 3 0 3 -10 1 -21z m41 -31 c5
4 5 3 1 -2 -12 -15 -34 -15 -34 0 0 9 4 11 12 4 7 -5 16 -6 21 -2z m3 -55 c2
-1 -5 -1 -16 0 -11 0 -20 7 -20 14 0 10 4 10 16 1 9 -7 18 -13 20 -15z m-82 6
c-12 -7 -16 -18 -12 -37 5 -25 5 -25 -4 -4 -13 27 -4 52 18 52 14 -1 14 -2 -2
-11z m78 -31 c5 4 5 1 1 -6 -6 -10 -11 -10 -22 -1 -8 6 -14 14 -14 16 0 3 6 0
13 -6 8 -6 18 -7 22 -3z m-69 -44 c-10 -7 -25 -10 -34 -6 -15 5 -15 3 -4 -10
11 -13 11 -18 0 -24 -7 -4 -10 -4 -6 1 4 4 3 14 -3 22 -6 7 -8 14 -3 15 5 0
14 2 19 3 6 2 16 3 23 4 7 0 10 6 6 13 -5 7 -3 8 6 3 10 -6 9 -11 -4 -21z m60
-6 c13 -16 14 -19 2 -10 -13 10 -17 10 -21 0 -3 -7 -4 -3 -4 10 1 12 2 22 3
22 0 0 9 -10 20 -22z m-52 -33 c-4 -8 -11 -12 -17 -8 -8 5 -7 8 1 11 7 2 9 9
6 14 -4 7 -2 8 4 4 6 -4 9 -13 6 -21z m61 -4 c3 -5 2 -12 -3 -15 -5 -3 -9 1
-9 9 0 17 3 19 12 6z m-65 -27 c0 -2 -7 -4 -15 -4 -8 0 -15 4 -15 10 0 5 7 7
15 4 8 -4 15 -8 15 -10z m35 6 c-3 -5 -12 -10 -18 -10 -7 0 -6 4 3 10 19 12
23 12 15 0z m-5 -61 c0 -5 -8 -9 -17 -8 -11 0 -13 3 -5 6 6 2 9 10 6 15 -4 7
-2 8 4 4 7 -4 12 -11 12 -17z m-61 -32 c0 -9 -2 -8 -6 1 -2 6 -10 9 -15 6 -7
-4 -8 -2 -4 5 9 13 26 5 25 -12z m3840 -23 c-15 -18 -22 -13 -13 10 3 9 10 13
16 10 5 -3 4 -12 -3 -20z m-3844 -4 c-3 -5 -11 -10 -16 -10 -6 0 -7 5 -4 10 3
6 11 10 16 10 6 0 7 -4 4 -10z m69 2 c3 -5 -1 -9 -9 -9 -8 0 -12 4 -9 9 3 4 7
8 9 8 2 0 6 -4 9 -8z m36 -36 c0 -2 -7 -7 -16 -10 -8 -3 -12 -2 -9 4 6 10 25
14 25 6z m-44 -32 c1 -9 0 -13 -4 -10 -3 4 -7 14 -8 22 -1 9 0 13 4 10 3 -4 7
-14 8 -22z m-22 -10 c3 -8 2 -12 -4 -9 -6 3 -10 10 -10 16 0 14 7 11 14 -7z
m57 -11 c13 -16 12 -17 -3 -4 -10 7 -18 15 -18 17 0 8 8 3 21 -13z m-61 -13
c8 -5 11 -10 5 -10 -5 0 -17 5 -25 10 -8 5 -10 10 -5 10 6 0 17 -5 25 -10z
m-2 -25 c-2 -1 -14 -8 -28 -14 -22 -11 -23 -10 -8 2 10 8 15 17 11 21 -4 4 1
4 10 0 10 -3 17 -8 15 -9z m67 -12 c0 -15 -6 -28 -13 -29 -7 -1 -8 0 -3 2 5 3
7 16 5 30 -2 13 0 24 4 24 5 0 8 -12 7 -27z m-65 -53 c6 -11 8 -20 6 -20 -3 0
-10 9 -16 20 -6 11 -8 20 -6 20 3 0 10 -9 16 -20z m84 12 c2 -4 -5 -9 -17 -9
-17 -2 -19 0 -7 7 18 12 18 12 24 2z m-51 -29 c-5 -12 -3 -14 8 -8 8 5 11 5 6
-1 -5 -5 -12 -9 -15 -8 -4 1 -12 -6 -18 -14 -9 -12 -13 -12 -19 -2 -5 8 -4 11
2 7 6 -4 15 5 21 18 13 28 25 34 15 8z m27 -53 c-8 -5 -19 -10 -25 -10 -5 0
-3 5 5 10 8 5 20 10 25 10 6 0 3 -5 -5 -10z m-55 -20 c8 -13 -5 -13 -25 0 -13
8 -13 10 2 10 9 0 20 -4 23 -10z m75 0 c-8 -5 -19 -10 -25 -10 -5 0 -3 5 5 10
8 5 20 10 25 10 6 0 3 -5 -5 -10z m-52 -29 c11 -7 10 -9 -3 -14 -9 -4 -14 -3
-10 2 3 5 -1 12 -7 14 -7 3 -8 6 -3 6 6 0 16 -3 23 -8z m-35 -14 c3 -8 2 -20
-3 -26 -5 -9 -7 -4 -7 13 0 29 2 32 10 13z m62 -17 c3 -6 -1 -7 -9 -4 -18 7
-21 14 -7 14 6 0 13 -4 16 -10z m-32 -23 c-4 -6 0 -8 10 -4 11 4 15 1 12 -13
-2 -10 3 -21 11 -24 8 -3 14 -10 14 -16 0 -5 -9 -2 -19 7 -11 9 -18 20 -15 24
2 4 -5 10 -16 14 -23 7 -27 22 -5 22 8 0 11 -5 8 -10z m-15 -38 c-12 -8 -4
-13 15 -10 4 0 7 -3 7 -9 0 -11 -30 -14 -31 -2 0 4 -2 15 -4 24 -2 11 2 15 12
11 12 -5 12 -7 1 -14z m50 -60 c-3 -8 -7 -3 -11 10 -4 17 -3 21 5 13 5 -5 8
-16 6 -23z m-37 -2 c-10 -9 -11 -8 -5 6 3 10 9 15 12 12 3 -3 0 -11 -7 -18z
m89 3 c0 -5 -5 -10 -11 -10 -5 0 -7 5 -4 10 3 6 8 10 11 10 2 0 4 -4 4 -10z
m-49 -57 c-12 -20 -14 -14 -5 12 4 9 9 14 11 11 3 -2 0 -13 -6 -23z m40 -10
c13 -17 12 -17 -4 -3 -17 13 -19 12 -15 -10 2 -21 -2 -25 -22 -27 -22 -1 -23
-1 -2 4 12 2 20 9 16 14 -6 10 1 39 9 39 3 0 11 -8 18 -17z m19 -27 c0 -9 -32
-36 -42 -36 -6 0 0 9 13 20 25 21 29 23 29 16z m45 -5 c3 -5 2 -12 -3 -15 -5
-3 -9 1 -9 9 0 17 3 19 12 6z m-62 -46 c-3 -9 -8 -14 -10 -11 -3 3 -2 9 2 15
9 16 15 13 8 -4z m45 -5 c-7 -10 -14 -17 -17 -15 -4 4 18 35 25 35 2 0 -1 -9
-8 -20z m-76 -5 c0 -5 -5 -10 -11 -11 -8 -2 -7 -1 0 3 8 4 7 8 -2 15 -11 8
-11 9 -1 6 8 -2 14 -8 14 -13z m18 -25 c0 -5 -5 -10 -11 -10 -5 0 -7 5 -4 10
3 6 8 10 11 10 2 0 4 -4 4 -10z m100 -25 c-5 -7 -8 -14 -5 -17 3 -2 -2 -5 -10
-5 -10 0 -12 4 -5 12 5 7 8 14 5 17 -3 2 2 5 10 5 10 0 12 -4 5 -12z m-40 -22
c0 -3 -6 -3 -12 0 -7 2 -18 -8 -24 -22 -9 -22 -11 -23 -17 -8 -4 10 -3 16 2
13 5 -3 11 3 14 14 3 13 10 18 21 14 9 -3 16 -8 16 -11z m-10 -32 c-5 -11 -15
-23 -21 -27 -6 -3 -3 5 6 20 20 30 30 35 15 7z m45 1 c-3 -3 3 -15 12 -26 10
-12 11 -16 4 -9 -7 6 -19 9 -26 7 -7 -3 -16 -1 -20 5 -4 7 1 8 12 4 15 -6 16
-4 6 8 -10 13 -10 16 2 16 8 0 13 -3 10 -5z m44 -26 c-3 -3 -11 5 -18 17 -13
21 -12 21 5 5 10 -10 16 -20 13 -22z m-53 -45 c1 -6 0 -7 -3 -1 -2 5 -9 8 -13
5 -5 -3 -11 -1 -14 4 -4 5 2 8 11 7 9 -2 18 -8 19 -15z m51 -6 c0 -8 -4 -12
-9 -9 -5 3 -6 10 -3 15 9 13 12 11 12 -6z m-43 -18 c3 3 6 1 6 -5 0 -16 -12
-15 -36 4 -18 15 -18 15 2 5 12 -6 24 -7 28 -4z m43 -42 c0 -8 -4 -15 -9 -15
-4 0 -8 7 -8 16 0 9 -5 12 -12 8 -7 -4 -8 -3 -4 4 9 15 33 5 33 -13z m98 -44
c3 -5 2 -12 -3 -15 -5 -3 -9 1 -9 9 0 17 3 19 12 6z m-55 -21 c0 -5 -4 -10
-10 -10 -5 0 -10 5 -10 10 0 6 5 10 10 10 6 0 10 -4 10 -10z m14 -36 c3 -8 2
-12 -4 -9 -6 3 -10 10 -10 16 0 14 7 11 14 -7z m26 -24 c0 -5 -5 -10 -11 -10
-5 0 -7 5 -4 10 3 6 8 10 11 10 2 0 4 -4 4 -10z m-11 -44 c-3 -3 -11 5 -18 17
-13 21 -12 21 5 5 10 -10 16 -20 13 -22z m81 4 c8 -5 11 -10 5 -10 -5 0 -17 5
-25 10 -8 5 -10 10 -5 10 6 0 17 -5 25 -10z m7 -66 c-3 -3 -12 -4 -19 -1 -8 3
-5 6 6 6 11 1 17 -2 13 -5z m71 -70 c-12 -12 -17 -13 -23 -3 -5 8 -4 10 4 5 6
-4 14 0 17 9 4 9 9 13 12 10 3 -3 -1 -13 -10 -21z m9 -40 c-3 -3 -12 -4 -19
-1 -8 3 -5 6 6 6 11 1 17 -2 13 -5z m77 -26 c-3 -5 -10 -6 -15 -3 -5 4 -9 1
-9 -6 0 -7 -3 -10 -6 -6 -9 9 3 24 20 24 8 0 13 -4 10 -9z m40 -16 c3 -5 -1
-9 -9 -9 -8 0 -12 4 -9 9 3 4 7 8 9 8 2 0 6 -4 9 -8z m-70 -24 c-3 -4 -9 -8
-15 -8 -5 0 -9 4 -9 8 0 5 7 9 15 9 8 0 12 -4 9 -9z m116 2 c0 -5 -5 -10 -11
-10 -5 0 -7 5 -4 10 3 6 8 10 11 10 2 0 4 -4 4 -10z m-105 -20 c-3 -5 -1 -10
5 -10 6 0 9 -4 6 -9 -4 -5 0 -12 6 -14 10 -4 10 -6 1 -6 -14 -1 -35 33 -26 43
10 9 15 7 8 -4z m43 -31 c-3 -8 -7 -3 -11 10 -4 17 -3 21 5 13 5 -5 8 -16 6
-23z m46 -53 c-10 -8 -21 -12 -24 -10 -5 6 21 24 34 24 6 0 1 -6 -10 -14z m56
0 c-7 -7 -13 -7 -20 0 -6 6 -3 10 10 10 13 0 16 -4 10 -10z m40 4 c0 -5 -5
-10 -11 -10 -5 0 -7 5 -4 10 3 6 8 10 11 10 2 0 4 -4 4 -10z m-32 -60 c-12
-19 -28 -27 -28 -14 0 6 30 33 38 34 1 0 -3 -9 -10 -20z m27 -21 c-4 -5 -12
-9 -18 -8 -9 0 -8 2 1 6 6 2 9 10 6 15 -4 7 -2 8 5 4 6 -4 9 -12 6 -17z m44 8
c8 -10 7 -14 -2 -14 -8 0 -14 6 -14 14 0 7 1 13 2 13 2 0 8 -6 14 -13z m-24
-27 c3 -5 1 -10 -4 -10 -6 0 -11 5 -11 10 0 6 2 10 4 10 3 0 8 -4 11 -10z
m136 -13 c-10 -9 -11 -8 -5 6 3 10 9 15 12 12 3 -3 0 -11 -7 -18z m2049 13 c0
-5 -5 -10 -11 -10 -5 0 -7 5 -4 10 3 6 8 10 11 10 2 0 4 -4 4 -10z m-2156 -25
c-7 -16 -24 -21 -24 -6 0 8 7 13 27 20 1 1 0 -6 -3 -14z m27 -8 c-13 -13 -15
-31 -3 -23 4 2 9 -5 9 -16 2 -21 2 -21 -13 1 -12 16 -13 25 -5 35 6 7 7 17 3
21 -4 5 -1 5 6 0 10 -5 11 -10 3 -18z m1984 -27 c3 -5 1 -10 -4 -10 -6 0 -11
5 -11 10 0 6 2 10 4 10 3 0 8 -4 11 -10z m-1942 -27 c-3 -8 0 -11 9 -8 9 4 15
0 15 -9 0 -11 -5 -13 -17 -6 -22 12 -32 37 -15 37 7 0 11 -6 8 -14z m1921 6
c3 -3 -4 -5 -14 -6 -11 -1 -20 2 -20 7 0 8 25 8 34 -1z m-1757 -14 c0 -8 -4
-12 -9 -9 -5 3 -6 10 -3 15 9 13 12 11 12 -6z m1619 -10 c-1 -8 -5 -17 -8 -21
-5 -4 -4 16 1 34 3 9 9 -1 7 -13z m-1676 -20 c-5 -7 -9 -14 -7 -16 1 -2 0 -3
-2 -1 -11 7 -7 29 5 29 9 0 11 -4 4 -12z m1574 -30 c-7 -18 -20 -19 -30 -3 -4
6 -3 8 4 4 6 -3 13 -2 17 4 9 15 15 12 9 -5z m-1460 -3 c3 -5 -1 -9 -9 -9 -8
0 -12 4 -9 9 3 4 7 8 9 8 2 0 6 -4 9 -8z m40 -20 c3 -5 -1 -9 -9 -9 -8 0 -12
4 -9 9 3 4 7 8 9 8 2 0 6 -4 9 -8z m41 -1 c3 -5 2 -12 -3 -15 -5 -3 -9 1 -9 9
0 17 3 19 12 6z m225 -37 c0 -8 -19 -13 -24 -6 -3 5 1 9 9 9 8 0 15 -2 15 -3z
m-103 -29 c0 -8 -4 -12 -9 -9 -5 3 -6 10 -3 15 9 13 12 11 12 -6z m323 -15 c0
-5 -5 -10 -11 -10 -5 0 -7 5 -4 10 3 6 8 10 11 10 2 0 4 -4 4 -10z m178 -2
c-2 -7 2 -12 8 -11 6 1 11 -5 11 -12 0 -10 -4 -12 -12 -5 -7 5 -14 7 -18 4 -4
-5 -3 16 2 34 3 9 11 0 9 -10z m83 -15 c13 -16 12 -17 -3 -4 -10 7 -18 15 -18
17 0 8 8 3 21 -13z m35 -3 c0 -12 -4 -16 -9 -11 -5 5 -6 14 -3 20 10 15 12 14
12 -9z m-185 -13 c-10 -9 -11 -8 -5 6 3 10 9 15 12 12 3 -3 0 -11 -7 -18z
m-171 -11 c0 -3 -4 -8 -10 -11 -5 -3 -10 -1 -10 4 0 6 5 11 10 11 6 0 10 -2
10 -4z"/>
<path d="M3205 4340 c3 -5 8 -10 11 -10 2 0 4 5 4 10 0 6 -5 10 -11 10 -5 0
-7 -4 -4 -10z"/>
<path d="M715 3210 c-3 -5 -2 -10 4 -10 5 0 13 5 16 10 3 6 2 10 -4 10 -5 0
-13 -4 -16 -10z"/>
<path d="M4286 3162 c-3 -5 1 -9 9 -9 8 0 12 4 9 9 -3 4 -7 8 -9 8 -2 0 -6 -4
-9 -8z"/>
<path d="M4348 2943 c7 -3 16 -2 19 1 4 3 -2 6 -13 5 -11 0 -14 -3 -6 -6z"/>
<path d="M602 2731 c-10 -6 -10 -10 3 -21 13 -11 15 -9 15 9 0 24 0 24 -18 12z"/>
<path d="M580 2699 c0 -5 5 -7 10 -4 6 3 10 8 10 11 0 2 -4 4 -10 4 -5 0 -10
-5 -10 -11z"/>
<path d="M4410 2585 c0 -2 10 -10 23 -16 20 -11 21 -11 8 4 -13 16 -31 23 -31
12z"/>
<path d="M4425 2450 c-3 -5 -1 -10 4 -10 6 0 11 5 11 10 0 6 -2 10 -4 10 -3 0
-8 -4 -11 -10z"/>
<path d="M556 2407 c3 -10 9 -15 12 -12 3 3 0 11 -7 18 -10 9 -11 8 -5 -6z"/>
</g>
</svg>
